# xmcd
#
# Track frame offsets:
# 150
# 21514
# 32168
# 47541
# 61361
# 79655
# 95293
# 109719
# 129746
# 147662
# 168908
# 189346
# 208439
# 224474
# 240830
# 260676
# 276690
# 291158
# 305952
# 322147
# 339819
#
# Disc length: 4736 seconds
#
#
# Revision: 0
# Processed by: cddbd v1.5.1PL0 Copyright (c) Steve Scherf et al.
# Submitted via: FreeRIP 2.942 
#
DISCID=4d127e15
DTITLE=Sertanejo 2005 - Sertanejo 2005
DYEAR=1900
DGENRE=Country
TTITLE0=Será
TTITLE1=Garanhão da Madrugada
TTITLE2=Aceito seu coração
TTITLE3=Peão apaixonado
TTITLE4=Em qualquer lugar do mundo
TTITLE5=Meu bem não me quer
TTITLE6=Dois em um
TTITLE7=Fui eu
TTITLE8=Tentei te esquecer
TTITLE9=Sinônimos
TTITLE10=Amor Perfeito
TTITLE11=Eu mereço
TTITLE12=Entre ele e eu
TTITLE13=A gente se entrega
TTITLE14=Se não tivesse ido
TTITLE15=Apaixonado
TTITLE16=Teimosia
TTITLE17=Jogando ba rua
TTITLE18=Ana Julia - Teodoro e Sampaio
TTITLE19=Inevitavel - Bruno e marrone
TTITLE20=O que que eu to fazendo aqui - Gino e geno
EXTD=
EXTT0=
EXTT1=
EXTT2=
EXTT3=
EXTT4=
EXTT5=
EXTT6=
EXTT7=
EXTT8=
EXTT9=
EXTT10=
EXTT11=
EXTT12=
EXTT13=
EXTT14=
EXTT15=
EXTT16=
EXTT17=
EXTT18=
EXTT19=
EXTT20=
PLAYORDER=
